# xmcd
#
# Track frame offsets:
#	150
#	20230
#	34982
#	55007
#	71487
#	91795
#	106862
#	120505
#	135725
#	151507
#	167462
#	179945
#	192200
#	207542
#	219720
#	233767
#	249195
#	265112
#
# Disc length: 3808 seconds
#
# Revision: 1
# Processed by: cddbd v1.5.1PL0 Copyright (c) Steve Scherf et al.
# Submitted via: audiograbber 1.82.02
#
DISCID=f60ede12
DTITLE=Ray Burgess - Gloria
DYEAR=1900
DGENRE=Country
TTITLE0=Touch Me
TTITLE1=Love Forever
TTITLE2=Dancing Shoes
TTITLE3=Rock and Roll Lightning
TTITLE4=Sad Rock N Roll
TTITLE5=Little Boy Sad
TTITLE6=Hot Cookie
TTITLE7=Gimme What You Got
TTITLE8=I Want You, I Need You
TTITLE9=Love Stealer
TTITLE10=Black Is Black
TTITLE11=When You Lose
TTITLE12=Stay Awhile, Stay
TTITLE13=Gloria
TTITLE14=Midnight Cowboy
TTITLE15=Lover Boy
TTITLE16=Eve Of Destruction
TTITLE17=Drift Away
EXTD=
EXTT0=
EXTT1=
EXTT2=
EXTT3=
EXTT4=
EXTT5=
EXTT6=
EXTT7=
EXTT8=
EXTT9=
EXTT10=
EXTT11=
EXTT12=
EXTT13=
EXTT14=
EXTT15=
EXTT16=
EXTT17=
PLAYORDER=
